<svg xmlns="http://www.w3.org/2000/svg" enable-background="new 0 0 40 40" viewBox="0 0 40 40" id="airbnb">
  <switch>
    <g fill="#000000" class="color000000 svgShape">
      <path fill="#c4cdd0" d="M28.1,36c-2.9,0-6.4-3-8-4.5l0,0L20,31.4c-1.5,1.5-5.1,4.6-8.1,4.6c-3.1,0-5.4-1.5-6.4-4.1
			c-0.8-1.9-0.6-4.2,0.4-6.2L15,7.6C15.2,7.1,16.5,4,20,4s4.8,3.1,5,3.6l9.1,18.1c1,2,1.2,4.3,0.4,6.2C33.5,34.5,31.2,36,28.1,36z
			 M21.3,29.9c1.6,1.5,4.7,4.1,6.8,4.1c1.6,0,3.6-0.5,4.6-2.9c0.6-1.4,0.4-3.1-0.3-4.6L23.1,8.3C23.1,8.2,22.3,6,20,6
			s-3.1,2.2-3.1,2.3l-0.1,0.1L7.7,26.6c-0.8,1.5-0.9,3.2-0.3,4.6c0.9,2.4,3,2.9,4.6,2.9c2.1,0,5.1-2.5,6.7-4c-1.2-1.5-3.6-4.9-3.6-9
			c0-2.8,2.2-5,5-5s5,2.2,5,5C25,24.4,22.5,28.3,21.3,29.9z M20,18c-1.7,0-3,1.3-3,3c0,3.2,1.8,6,2.9,7.4C21,26.8,23,23.6,23,21
			C23,19.3,21.7,18,20,18z" class="colore0565b svgShape"></path>
    </g>
  </switch>
</svg>
