<svg xmlns="http://www.w3.org/2000/svg" enable-background="new 0 0 40 40" viewBox="0 0 40 40" id="dell">
  <switch>
    <g fill="#000000" class="color000000 svgShape">
      <path fill="#c4cdd0" d="M25,22v-6h-2v2.6l-4.9,3.3L17,21.2l4.3-2.8l-1.4-0.8l-4.3,2.8l-0.9-0.5l4.3-2.8L17,16l-5.1,3.4
			C11.6,17.5,10,16,8,16H4v8h4c2,0,3.7-1.5,4-3.5l6,3.5l5-3.3V24h6v-2H25z M9.4,21.4C9,21.8,8.5,22,8,22H6v-4l1.8,0
			c1.2,0,2.3,1,2.2,2.2C9.9,20.7,9.7,21.1,9.4,21.4z M36,22v2h-6v-8h2v6H36z" class="color0082c9 svgShape"></path>
    </g>
  </switch>
</svg>
