<svg xmlns="http://www.w3.org/2000/svg" enable-background="new 0 0 40 40" viewBox="0 0 40 40" id="kia">
  <switch>
    <g fill="#000000" class="color000000 svgShape">
      <path fill="#c4cdd0" d="M31.7,15.3L22,24v-8c0-0.6-0.4-1-1-1h-2.6c-0.2,0-0.5,0.1-0.7,0.3L8,24v-9l-3.5,2.2
			C4.2,17.4,4,17.7,4,18.1V24c0,0.6,0.4,1,1,1h3h1.6c0.2,0,0.5-0.1,0.7-0.2l1.3-1.2l1.1,1.1c0.2,0.2,0.4,0.3,0.7,0.3H17l-3.3-3.3
			L18,18v6c0,0.6,0.4,1,1,1h4.6c0.2,0,0.5-0.1,0.7-0.2L32,18v7l3.6-2.6c0.3-0.2,0.4-0.5,0.4-0.8V16c0-0.6-0.4-1-1-1h-2.6
			C32.1,15,31.9,15.1,31.7,15.3z" class="color05151e svgShape"></path>
    </g>
  </switch>
</svg>
