<svg xmlns="http://www.w3.org/2000/svg" enable-background="new 0 0 40 40" viewBox="0 0 40 40" id="spotify">
  <switch>
    <g fill="#000000" class="color000000 svgShape">
      <g fill="#000000" class="color000000 svgShape">
        <circle cx="20" cy="20" r="16" fill="#c4cdd0" class="color1ed35a svgShape"></circle>
        <path d="M31 18.5c-.2 0-.4 0-.7-.1-3.3-1.6-6.8-2.5-10.5-2.8-3.2-.2-6.4.1-9.5.9-.8.2-1.6-.3-1.8-1.1-.2-.8.3-1.6 1.1-1.8 3.4-.9 7-1.3 10.5-1 4 .3 7.9 1.3 11.5 3.1.7.4 1.1 1.3.7 2C32.1 18.2 31.6 18.5 31 18.5zM28.9 23c-.2 0-.4 0-.5-.1-2.6-1.4-5.5-2.3-8.5-2.6-2.8-.3-5.8 0-8.5.9-.6.2-1.2-.2-1.4-.7-.2-.6.2-1.2.7-1.4 3-.9 6.2-1.2 9.3-.9 3.3.3 6.5 1.3 9.3 2.8.5.3.7 1 .4 1.5C29.7 22.8 29.3 23 28.9 23zM26.7 27.5c-.2 0-.3 0-.4-.1-1.1-.8-2.4-1.4-3.7-1.9-4.3-1.5-8.4-.8-11 0-.4.1-.9-.1-1-.5-.1-.4.1-.9.5-1 2.9-.9 7.3-1.7 12.1 0 1.4.5 2.8 1.2 4 2 .4.2.5.7.2 1.1C27.2 27.4 27 27.5 26.7 27.5z" fill="#000000" class="color000000 svgShape"></path>
      </g>
    </g>
  </switch>
</svg>
