<svg xmlns="http://www.w3.org/2000/svg" viewBox="0 0 24 24" id="investment">
  <g>
    <path d="M20.7,14.48a2.76,2.76,0,0,0-2.57-.3l-.11.05-.95.56a9.31,9.31,0,0,1-2.45,1,1.92,1.92,0,0,0,.13-.72,2.29,2.29,0,0,0-1.86-2.18,13.41,13.41,0,0,0-5.78,0L6.45,13A1.77,1.77,0,0,0,5,12.25H4A1.76,1.76,0,0,0,2.25,14v6A1.76,1.76,0,0,0,4,21.75H5a1.76,1.76,0,0,0,1.49-.84l6.18.61a6.23,6.23,0,0,0,.74,0,7.23,7.23,0,0,0,3.84-1.08l3.07-1.91a2.42,2.42,0,0,0,1.43-2.16A2.32,2.32,0,0,0,20.7,14.48ZM5.25,20a.25.25,0,0,1-.25.25H4A.25.25,0,0,1,3.75,20V14A.25.25,0,0,1,4,13.75H5a.25.25,0,0,1,.25.25Zm14.41-2.78-.09.05-3.11,1.94a5.8,5.8,0,0,1-3.64.82l-6.07-.6V14.49l.69-.15a11.79,11.79,0,0,1,5.12,0,.79.79,0,0,1,.69.72.87.87,0,0,1-.93.75H10a.74.74,0,0,0-.74.66.75.75,0,0,0,.58.82,11.22,11.22,0,0,0,8-1.21l.89-.52a1.34,1.34,0,0,1,1.14.15.87.87,0,0,1,.4.71A.91.91,0,0,1,19.66,17.22Z"></path>
    <path fill="#f25220" d="M19,2.25H16a.75.75,0,0,0,0,1.5h1.19L13,7.94,10.53,5.47a.76.76,0,0,0-1-.06l-5,4a.75.75,0,0,0,.94,1.18L9.94,7l2.53,2.53a.75.75,0,0,0,1.06,0l4.72-4.72V6a.75.75,0,0,0,1.5,0V3A.76.76,0,0,0,19,2.25Z"></path>
  </g>
</svg>
