<svg xmlns="http://www.w3.org/2000/svg" enable-background="new 0 0 40 40" viewBox="0 0 40 40" id="toyota">
  <switch>
    <g fill="#000000" class="color000000 svgShape">
      <path fill="#c4cdd0" fill-rule="evenodd" d="M20,10c-9,0-16,4.4-16,10s7,10,16,10s16-4.4,16-10S29,10,20,10z M29,15c0,1.2-2.1,2.2-5.1,2.7
			c-0.3-2.4-1-4.5-2-5.6c1.8,0.1,3.6,0.5,5.1,1C28.2,13.6,29,14.3,29,15z M13,13.1c1.6-0.5,3.3-0.9,5.1-1c-1,1.2-1.7,3.2-2,5.6
			c-3-0.5-5.1-1.5-5.1-2.7C11,14.3,11.8,13.6,13,13.1z M20,13c1,0,1.8,2.1,2,4.9c-0.6,0-1.3,0.1-2,0.1s-1.3,0-2-0.1
			C18.2,15.1,19,13,20,13z M6,20c0-1.5,0.8-2.9,2.1-4.1c0.4,1.8,3.6,3.3,8,3.8c0,0.1,0,0.2,0,0.3c0,3.4,0.8,6.4,2.1,7.9
			C11.4,27.4,6,24,6,20z M20.2,25c-0.1,0-0.1,0-0.2,0s-0.1,0-0.2,0c-0.9-0.3-1.6-2.4-1.8-5c0.6,0,1.3,0.1,2,0.1s1.3,0,2-0.1
			C21.8,22.6,21.1,24.7,20.2,25z M21.9,27.9c1.3-1.5,2.1-4.5,2.1-7.9c0-0.1,0-0.2,0-0.3c4.3-0.6,7.5-2.1,8-3.8
			c1.3,1.2,2.1,2.6,2.1,4.1C34,24,28.6,27.4,21.9,27.9z" clip-rule="evenodd" class="color141414 svgShape"></path>
    </g>
  </switch>
</svg>
